<?xml version="1.0" encoding="utf-8"?>
<!-- Generator: Adobe Illustrator 15.1.0, SVG Export Plug-In . SVG Version: 6.00 Build 0)  -->
<!DOCTYPE svg PUBLIC "-//W3C//DTD SVG 1.1//EN" "http://www.w3.org/Graphics/SVG/1.1/DTD/svg11.dtd">
<svg version="1.1" id="cloudlarge1-testTiming" xmlns="http://www.w3.org/2000/svg" xmlns:xlink="http://www.w3.org/1999/xlink"
	 x="0px" y="0px" width="500px" height="500px" viewBox="0 0 500 500" enable-background="new 0 0 500 500" xml:space="preserve">
<path fill="#FFFFFF" stroke="#1E6D6A" stroke-width="10" stroke-miterlimit="10" d="M11.873,186.167
	c-0.474,41.361,47.305,73.671,105.661,73.671c58.355,0,105.661-32.983,105.661-73.671c0-40.688-30.051-53.639-88.213-51.7
	C75.869,136.437,12.519,129.728,11.873,186.167z"/>
<ellipse fill="#FFFFFF" stroke="#1E6D6A" stroke-width="10" stroke-miterlimit="10" cx="231.375" cy="265.008" rx="65.702" ry="52.992"/>
<ellipse fill="#FFFFFF" stroke="#1E6D6A" stroke-width="10" stroke-miterlimit="10" cx="122.807" cy="236.573" rx="65.702" ry="52.992"/>
<path fill="#FFFFFF" stroke="#1E6D6A" stroke-width="10" stroke-miterlimit="10" d="M313.664,189.182
	c17.811,46.999-55.012,81.642-117.293,81.642s-112.77-40.507-112.77-90.474c0-49.968,50.488-45.884,112.77-45.884
	S298.154,148.253,313.664,189.182z"/>
<path fill="#FFFFFF" stroke="#1E6D6A" stroke-width="10" stroke-miterlimit="10" d="M259.086,194.482
	c8.104,8.946,12.917,19.589,13.219,31.105c0.873,33.3-36.315,61.288-83.063,62.512c-46.747,1.225-78.899-9.428-87.869-41.51
	c-8.401-30.051,39.421-63.332,26.819-52.992"/>
<path fill="#FFFFFF" stroke="#1E6D6A" stroke-width="10" stroke-miterlimit="10" d="M459.069,186.813
	c0.473,41.362-47.307,73.672-105.661,73.672S247.747,227.5,247.747,186.813s30.051-53.639,88.213-51.7
	C395.072,137.083,458.423,130.374,459.069,186.813z"/>
<ellipse fill="#FFFFFF" stroke="#1E6D6A" stroke-width="10" stroke-miterlimit="10" cx="349.638" cy="237.219" rx="65.702" ry="52.992"/>
<path fill="#FFFFFF" stroke="#1E6D6A" stroke-width="10" stroke-miterlimit="10" d="M411.247,189.182
	c17.811,46.999-55.012,81.642-117.293,81.642s-112.77-40.507-112.77-90.474c0-49.968,50.488-45.884,112.77-45.884
	S395.738,148.253,411.247,189.182z"/>
<path fill="#FFFFFF" stroke="#1E6D6A" stroke-width="10" stroke-miterlimit="10" d="M346.288,209.758
	c-5.38-8.589,8.09,10.013,11.1,26.119c5.14,27.497-30.495,51.465-69.748,52.494c-39.254,1.028-65.424-21.681-72.402-48.769
	c-5.941-23.063,29.925-41.804,16.994-34.043"/>
</svg>
