<?xml version="1.0" encoding="utf-8"?>
<!-- Generator: Adobe Illustrator 15.1.0, SVG Export Plug-In . SVG Version: 6.00 Build 0)  -->
<!DOCTYPE svg PUBLIC "-//W3C//DTD SVG 1.1//EN" "http://www.w3.org/Graphics/SVG/1.1/DTD/svg11.dtd">
<svg version="1.1" id="Layer_1" xmlns="http://www.w3.org/2000/svg" xmlns:xlink="http://www.w3.org/1999/xlink" x="0px" y="0px"
	 width="700px" height="500px" viewBox="0 0 700 500" enable-background="new 0 0 700 500" xml:space="preserve">
<g id="topCenterlarge">
	<polygon fill="#676767" points="381.002,165.429 348.292,184.314 315.581,165.429 315.581,127.659 348.292,108.774 
		381.002,127.659 	"/>
	<polygon fill="#9B9B9B" points="404.08,121.565 347.75,154.087 291.421,121.565 291.421,56.521 347.75,24 404.08,56.521 	"/>
</g>
<g id="bottomCenterlarge">
	<polygon fill="#676767" points="313.295,329.57 346.005,310.686 378.716,329.57 378.716,367.342 346.005,386.227 313.295,367.342 	
		"/>
	<polygon fill="#9B9B9B" points="290.217,373.435 346.546,340.913 402.876,373.435 402.876,438.479 346.546,471 290.217,438.479 	
		"/>
</g>
<g id="bottomRightlarge">
	<polygon fill="#676767" points="393.294,169.572 426.004,150.687 458.715,169.572 458.715,207.342 426.004,226.228 
		393.294,207.342 	"/>
	<polygon fill="#9B9B9B" points="370.216,213.436 426.545,180.915 482.875,213.436 482.875,278.48 426.545,311.001 370.216,278.479 
			"/>
</g>
<g id="bottomLeftlarge">
	<polygon fill="#676767" points="301.796,320.116 269.086,339.001 236.375,320.116 236.375,282.346 269.086,263.46 301.796,282.346 
			"/>
	<polygon fill="#9B9B9B" points="324.875,276.252 268.545,308.773 212.215,276.252 212.215,211.208 268.545,178.687 
		324.875,211.208 	"/>
	<g id="Layer_5">
	</g>
</g>
<g id="backgroundSmallShapes">
	<polygon fill="#676767" points="193.686,148.366 182.195,155 170.705,148.366 170.705,135.098 182.195,128.464 193.686,135.098 	
		"/>
	<polygon fill="#9B9B9B" points="201.793,132.958 182.006,144.382 162.218,132.958 162.218,110.109 182.006,98.686 201.793,110.109 
			"/>
	<polygon fill="#676767" points="515.324,366.319 526.814,359.686 538.305,366.319 538.305,379.588 526.814,386.222 
		515.324,379.588 	"/>
	<polygon fill="#9B9B9B" points="507.217,381.728 527.004,370.304 546.792,381.728 546.792,404.576 527.004,416 507.217,404.576 	
		"/>
</g>
</svg>
